<svg width="980" height="640" viewBox="0 0 980 640" fill="none" xmlns="http://www.w3.org/2000/svg">
  <style>
    .title { font: 700 30px Arial, sans-serif; fill: #111827; }
    .caption { font: 18px "Courier New", monospace; fill: #4b5563; }
    .box { fill: #f0ecff; stroke: #8b5cf6; stroke-width: 1.5; rx: 0; }
    .guard { fill: #e8fff6; stroke: #10b981; stroke-width: 1.8; rx: 0; }
    .system { fill: #f8fafc; stroke: #64748b; stroke-width: 1.5; rx: 0; }
    .text { font: 18px "Courier New", monospace; fill: #374151; text-anchor: middle; dominant-baseline: middle; }
    .small { font: 15px "Courier New", monospace; fill: #374151; text-anchor: middle; dominant-baseline: middle; }
    .arrow { stroke: #222; stroke-width: 1.4; fill: none; marker-end: url(#arrow); }
  </style>

  <defs>
    <marker id="arrow" markerWidth="10" markerHeight="10" refX="8" refY="3" orient="auto" markerUnits="strokeWidth">
      <path d="M0,0 L0,6 L9,3 z" fill="#222" />
    </marker>
  </defs>

  <text x="48" y="62" class="title">How AXG fits in</text>

  <rect x="58" y="270" width="250" height="64" class="box" />
  <text x="183" y="302" class="text">Apps + bots + plugins</text>

  <rect x="368" y="270" width="150" height="64" class="box" />
  <text x="443" y="302" class="text">MUAI Gateway</text>

  <rect x="618" y="86" width="210" height="64" class="box" />
  <text x="723" y="118" class="text">LLM providers</text>

  <rect x="636" y="190" width="210" height="64" class="box" />
  <text x="741" y="222" class="text">OpenClaw agents</text>

  <rect x="642" y="294" width="230" height="64" class="box" />
  <text x="757" y="326" class="text">Capability plugins</text>

  <rect x="626" y="402" width="210" height="64" class="guard" />
  <text x="731" y="424" class="text">AXG Guard</text>
  <text x="731" y="446" class="small">ALLOW / CONFIRM / BLOCK</text>

  <rect x="632" y="510" width="246" height="64" class="system" />
  <text x="755" y="532" class="text">Real systems</text>
  <text x="755" y="554" class="small">FinNorte / Social / Security</text>

  <path d="M308 302 C328 302 348 302 368 302" class="arrow" />

  <path d="M500 270 C548 164 578 118 618 118" class="arrow" />
  <path d="M518 292 C566 238 596 222 636 222" class="arrow" />
  <path d="M518 318 C560 324 600 326 642 326" class="arrow" />
  <path d="M500 334 C552 400 580 434 626 434" class="arrow" />
  <path d="M731 466 C732 488 735 504 755 510" class="arrow" />

  <path d="M626 434 C566 426 530 388 502 334" class="arrow" />

  <text x="48" y="605" class="caption">MUAI is the gateway for AI capabilities. AXG is the deterministic gate before real actions.</text>
</svg>
